<svg width="25" height="23" viewBox="0 0 25 23" fill="none" xmlns="http://www.w3.org/2000/svg">
<path d="M7.16667 4.83333V10.0833M7.16667 21.75V14.75M17.6667 4.83333V21.75M17.0833 4.83333H7.75C4.45067 4.83333 2.79983 4.83333 1.7755 5.85883C0.75 6.88316 0.75 8.53399 0.75 11.8333V14.75C0.75 18.0493 0.75 19.7002 1.7755 20.7245C2.79983 21.75 4.45067 21.75 7.75 21.75H17.0833C20.3827 21.75 22.0335 21.75 23.0578 20.7245C24.0833 19.7002 24.0833 18.0493 24.0833 14.75V11.8333C24.0833 8.53399 24.0833 6.88316 23.0578 5.85883C22.0335 4.83333 20.3827 4.83333 17.0833 4.83333Z" stroke="black" stroke-opacity="0.5" stroke-width="1.5" stroke-linecap="round" stroke-linejoin="round"/>
<path d="M8.33333 4.83333C8.33333 3.19533 8.33333 2.37517 8.7265 1.78717C8.89678 1.53228 9.11562 1.31345 9.3705 1.14317C9.9585 0.75 10.7787 0.75 12.4167 0.75C14.0547 0.75 14.8748 0.75 15.4628 1.14317C15.7177 1.31345 15.9366 1.53228 16.1068 1.78717C16.5 2.37517 16.5 3.19533 16.5 4.83333M8.91667 10.0833H5.41667C5.10725 10.0833 4.8105 10.2062 4.59171 10.425C4.37292 10.6438 4.25 10.9406 4.25 11.25V13.5833C4.25 13.8928 4.37292 14.1895 4.59171 14.4083C4.8105 14.6271 5.10725 14.75 5.41667 14.75H8.91667C9.22609 14.75 9.52283 14.6271 9.74162 14.4083C9.96042 14.1895 10.0833 13.8928 10.0833 13.5833V11.25C10.0833 10.9406 9.96042 10.6438 9.74162 10.425C9.52283 10.2062 9.22609 10.0833 8.91667 10.0833Z" stroke="black" stroke-opacity="0.5" stroke-width="1.5" stroke-linecap="round" stroke-linejoin="round"/>
</svg>
